{"title":"Tower Heist 2011 TS READNFO XviD-MiSTERE","uid":6817617,"size":1474428080,"categoryP":"video","categoryS":"movies","magnet":"?xt=urn:btih:25c8cde3a7c42c05a028f1d801fa31b8d98ebdb2&amp;dn=Tower+Heist+2011+TS+READNFO+XviD-MiSTERE&amp;tr=udp%3A%2F%2Ftracker.openbittorrent.com%3A80&amp;tr=udp%3A%2F%2Fopen.demonii.com%3A1337&amp;tr=udp%3A%2F%2Ftracker.coppersurfer.tk%3A6969&amp;tr=udp%3A%2F%2Fexodus.desync.com%3A6969","seeders":0,"leechers":0,"uploader":"HeroMaster","files":-1,"time":1321280576,"description":"Tower Heist 2011 TS READNFO XviD - MiSTERE\n &lt;a href=&quot;\nhttp://www.imdb.com/title/tt0471042/&quot; rel=&quot;nofollow&quot; target=&quot;_NEW&quot;&gt;\nhttp://www.imdb.com/title/tt0471042/&lt;/a&gt;\n\nSource:\n      \nV: German\nA: Thanks\n\nVideo\nID                               : 0\nFormat                           : MPEG-4 Visual\nFormat profile                   : Advanced Simple@L5\nFormat settings, BVOP            : 2\nFormat settings, QPel            : No\nFormat settings, GMC             : No warppoints\nFormat settings, Matrix          : Default (H.263)\nCodec ID                         : XVID\nCodec ID/Hint                    : XviD\nDuration                         : 1h 38mn\nBit rate                         : 863 Kbps\nWidth                            : 720 pixels\nHeight                           : 288 pixels\nDisplay aspect ratio             : 2.500\nFrame rate                       : 23.976 fps\nColor space                      : YUV\nChroma subsampling               : 4:2:0\nBit depth                        : 8 bits\nScan type                        : Progressive\nCompression mode                 : Lossy\nBits/(Pixel*Frame)               : 0.174\nStream size                      : 610 MiB (86%)\nWriting library                  : XviD 1.1.0 Beta2 (UTC 2005-04-04)\n\nAudio\nID                               : 1\nFormat                           : MPEG Audio\nFormat version                   : Version 2\nFormat profile                   : Layer 3\nMode                             : Joint stereo\nMode extension                   : MS Stereo\nCodec ID                         : 55\nCodec ID/Hint                    : MP3\nDuration                         : 1h 38mn\nBit rate mode                    : Constant\nBit rate                         : 128 Kbps\nChannel(s)                       : 2 channels\nSampling rate                    : 24.0 KHz\nCompression mode                 : Lossy\nStream size                      : 90.4 MiB (13%)\nAlignment                        : Split accross interleaves\nInterleave, duration             : 42 ms (1.00 video frame)\n\n\nSharpened and Tweaked RGB\nNot the best LiNE hence the reason\nwe did the CAM also\nbut we had the audio so here the TS is\ntake it or leave it\n\n\nPoster:\n\n &lt;a href=&quot;\nhttp://i.imgur.com/TRIz8.jpg&quot; rel=&quot;nofollow&quot; target=&quot;_NEW&quot;&gt;\nhttp://i.imgur.com/TRIz8.jpg&lt;/a&gt;\n\n\nScreenshots:\n\n &lt;a href=&quot;\nhttp://i.imgur.com/YdzF1.jpg&quot; rel=&quot;nofollow&quot; target=&quot;_NEW&quot;&gt;\nhttp://i.imgur.com/YdzF1.jpg&lt;/a&gt;\n\n\nENJOY!","torrent":{"xt":"urn:btih:25c8cde3a7c42c05a028f1d801fa31b8d98ebdb2","amp;dn":"Tower+Heist+2011+TS+READNFO+XviD-MiSTERE","amp;tr":["udp%3A%2F%2Ftracker.openbittorrent.com%3A80","udp%3A%2F%2Fopen.demonii.com%3A1337","udp%3A%2F%2Ftracker.coppersurfer.tk%3A6969","udp%3A%2F%2Fexodus.desync.com%3A6969"],"infoHash":"25c8cde3a7c42c05a028f1d801fa31b8d98ebdb2","infoHashBuffer":{"type":"Buffer","data":[37,200,205,227,167,196,44,5,160,40,241,216,1,250,49,184,217,142,189,178]},"announce":[],"urlList":[]}}